<?xml version="1.0" standalone="no"?>
<!DOCTYPE svg PUBLIC "-//W3C//DTD SVG 20010904//EN"
 "http://www.w3.org/TR/2001/REC-SVG-20010904/DTD/svg10.dtd">
<svg version="1.0" xmlns="http://www.w3.org/2000/svg"
 width="200.000000pt" height="200.000000pt" viewBox="0 0 200.000000 200.000000"
 preserveAspectRatio="xMidYMid meet">
<metadata>
Created by potrace 1.11, written by Peter Selinger 2001-2013
</metadata>
<g transform="translate(0.000000,200.000000) scale(0.100000,-0.100000)"
fill="#000000" stroke="none">
<path d="M0 1000 l0 -1000 1000 0 1000 0 0 1000 0 1000 -1000 0 -1000 0 0
-1000z m1443 463 c35 -17 83 -48 107 -69 41 -37 100 -126 100 -151 0 -10 -29
-13 -113 -13 l-113 0 -23 31 c-28 38 -76 59 -134 59 -133 0 -217 -90 -217
-230 0 -156 77 -242 216 -242 73 0 117 20 151 72 40 58 36 60 -92 60 l-115 0
0 75 0 75 226 0 226 0 -4 -87 c-2 -72 -8 -99 -31 -145 -41 -84 -107 -152 -185
-190 -64 -32 -72 -33 -182 -33 -104 0 -120 3 -173 27 -79 37 -160 117 -199
195 -40 82 -50 215 -24 309 31 108 109 200 213 253 65 33 110 41 209 37 77 -3
102 -8 157 -33z m-1124 -151 c41 -97 77 -180 80 -184 4 -4 42 76 85 177 l78
185 110 0 c60 0 108 -3 106 -8 -2 -4 -65 -130 -141 -279 l-137 -272 0 -130 0
-131 -100 0 -100 0 0 137 0 136 -140 274 -140 273 113 0 112 -1 74 -177z
m1604 -460 c38 -36 39 -107 1 -145 -52 -52 -136 -41 -169 23 -19 37 -19 63 1
101 31 61 113 71 167 21z"/>
</g>
</svg>
