<svg xmlns="http://www.w3.org/2000/svg" xmlns:xlink="http://www.w3.org/1999/xlink" width="40" zoomAndPan="magnify" viewBox="0 0 30 30.000001" height="40" preserveAspectRatio="xMidYMid meet" version="1.0"><defs><g/><clipPath id="9ab6d696c7"><path d="M 0.484375 0 L 29.515625 0 L 29.515625 29.03125 L 0.484375 29.03125 Z M 0.484375 0 " clip-rule="nonzero"/></clipPath><clipPath id="cc4c4696a5"><path d="M 0.484375 8 L 11 8 L 11 22 L 0.484375 22 Z M 0.484375 8 " clip-rule="nonzero"/></clipPath></defs><g clip-path="url(#9ab6d696c7)"><path fill="#ffffff" d="M 0.484375 0 L 29.515625 0 L 29.515625 36.289062 L 0.484375 36.289062 Z M 0.484375 0 " fill-opacity="1" fill-rule="nonzero"/><path fill="#ffffff" d="M 0.484375 0 L 29.515625 0 L 29.515625 29.03125 L 0.484375 29.03125 Z M 0.484375 0 " fill-opacity="1" fill-rule="nonzero"/><path fill="#000000" d="M 0.484375 0 L 29.515625 0 L 29.515625 29.03125 L 0.484375 29.03125 Z M 0.484375 0 " fill-opacity="1" fill-rule="nonzero"/></g><g clip-path="url(#cc4c4696a5)"><g fill="#ffffff" fill-opacity="1"><g transform="translate(0.486706, 21.07694)"><g><path d="M 10.4375 -12.875 L 6.25 -4.859375 L 6.25 0 L 4.5625 0 L 4.5625 -4.859375 L 0.34375 -12.875 L 2.21875 -12.875 L 5.390625 -6.359375 L 8.5625 -12.875 Z M 10.4375 -12.875 "/></g></g></g></g><g fill="#ffffff" fill-opacity="1"><g transform="translate(11.268967, 21.07694)"><g><path d="M 11.171875 -9.140625 C 10.816406 -9.890625 10.300781 -10.46875 9.625 -10.875 C 8.945312 -11.289062 8.160156 -11.5 7.265625 -11.5 C 6.359375 -11.5 5.546875 -11.289062 4.828125 -10.875 C 4.109375 -10.46875 3.539062 -9.878906 3.125 -9.109375 C 2.71875 -8.335938 2.515625 -7.453125 2.515625 -6.453125 C 2.515625 -5.441406 2.71875 -4.550781 3.125 -3.78125 C 3.539062 -3.019531 4.109375 -2.429688 4.828125 -2.015625 C 5.546875 -1.609375 6.359375 -1.40625 7.265625 -1.40625 C 8.515625 -1.40625 9.546875 -1.78125 10.359375 -2.53125 C 11.171875 -3.28125 11.644531 -4.296875 11.78125 -5.578125 L 6.65625 -5.578125 L 6.65625 -6.9375 L 13.578125 -6.9375 L 13.578125 -5.65625 C 13.472656 -4.59375 13.140625 -3.617188 12.578125 -2.734375 C 12.015625 -1.859375 11.269531 -1.164062 10.34375 -0.65625 C 9.414062 -0.144531 8.390625 0.109375 7.265625 0.109375 C 6.066406 0.109375 4.972656 -0.164062 3.984375 -0.71875 C 3.003906 -1.28125 2.226562 -2.0625 1.65625 -3.0625 C 1.082031 -4.0625 0.796875 -5.191406 0.796875 -6.453125 C 0.796875 -7.703125 1.082031 -8.828125 1.65625 -9.828125 C 2.226562 -10.835938 3.003906 -11.617188 3.984375 -12.171875 C 4.972656 -12.734375 6.066406 -13.015625 7.265625 -13.015625 C 8.628906 -13.015625 9.835938 -12.675781 10.890625 -12 C 11.941406 -11.320312 12.707031 -10.367188 13.1875 -9.140625 Z M 11.171875 -9.140625 "/></g></g></g><g fill="#ffffff" fill-opacity="1"><g transform="translate(25.633004, 21.07694)"><g><path d="M 1.953125 0.109375 C 1.640625 0.109375 1.367188 0 1.140625 -0.21875 C 0.921875 -0.4375 0.8125 -0.707031 0.8125 -1.03125 C 0.8125 -1.351562 0.921875 -1.625 1.140625 -1.84375 C 1.367188 -2.0625 1.640625 -2.171875 1.953125 -2.171875 C 2.265625 -2.171875 2.523438 -2.0625 2.734375 -1.84375 C 2.953125 -1.625 3.0625 -1.351562 3.0625 -1.03125 C 3.0625 -0.707031 2.953125 -0.4375 2.734375 -0.21875 C 2.523438 0 2.265625 0.109375 1.953125 0.109375 Z M 1.953125 0.109375 "/></g></g></g></svg>